<svg id="visual" viewBox="0 0 900 900" width="900" height="900" xmlns="http://www.w3.org/2000/svg" xmlns:xlink="http://www.w3.org/1999/xlink" version="1.1"><rect width="900" height="900" fill="#f0f0f0"></rect><g><g transform="translate(872 576)"><path d="M34.9 -27.9C43.3 -17.3 47 -2.9 44.1 10.2C41.2 23.2 31.8 34.9 19.4 41.3C7 47.6 -8.5 48.7 -20.7 42.9C-32.9 37.1 -41.9 24.3 -45.1 10.3C-48.3 -3.7 -45.8 -19.1 -37.3 -29.7C-28.8 -40.3 -14.4 -46.1 -0.6 -45.7C13.2 -45.2 26.5 -38.5 34.9 -27.9Z" fill="none" stroke="#8ED081" stroke-width="8"></path></g><g transform="translate(844 756)"><path d="M29 -23.2C35.9 -14.5 38.6 -2.5 36.4 8.7C34.1 19.8 26.8 30.2 16.8 35C6.9 39.9 -5.8 39.1 -16.1 34C-26.4 28.8 -34.4 19.2 -36.9 8.4C-39.5 -2.5 -36.6 -14.7 -29.5 -23.5C-22.5 -32.2 -11.2 -37.5 -0.1 -37.4C11 -37.3 22.1 -31.9 29 -23.2Z" fill="none" stroke="#8ED081" stroke-width="8"></path></g><g transform="translate(145 635)"><path d="M20.1 -15.7C25.1 -9.7 27.7 -1.4 26.1 6.1C24.4 13.6 18.7 20.2 11.7 23.2C4.7 26.1 -3.6 25.3 -10.7 22C-17.8 18.6 -23.9 12.7 -25.7 5.6C-27.6 -1.6 -25.4 -10 -20.4 -15.9C-15.4 -21.9 -7.7 -25.3 -0.1 -25.3C7.5 -25.2 15.1 -21.6 20.1 -15.7Z" fill="none" stroke="#8ED081" stroke-width="8"></path></g><g transform="translate(12 624)"><path d="M16.7 -13.1C20.8 -8.1 22.8 -1.2 21.4 4.9C20 11 15.2 16.3 9.3 19.2C3.3 22 -3.8 22.3 -9.7 19.6C-15.6 17 -20.4 11.3 -21.5 5.2C-22.7 -0.9 -20.3 -7.6 -16.1 -12.6C-11.9 -17.6 -6 -21 0.2 -21.2C6.3 -21.3 12.6 -18.2 16.7 -13.1Z" fill="none" stroke="#8ED081" stroke-width="8"></path></g><g transform="translate(591 502)"><path d="M31.8 -25.6C39.5 -15.6 43 -2.5 40.4 9.4C37.8 21.2 29.1 31.8 18.1 36.9C7.1 41.9 -6.3 41.4 -17.1 36C-27.9 30.6 -36.2 20.4 -39.3 8.5C-42.3 -3.3 -40.2 -16.8 -32.8 -26.8C-25.4 -36.7 -12.7 -43.1 -0.3 -42.8C12 -42.5 24 -35.6 31.8 -25.6Z" fill="none" stroke="#8ED081" stroke-width="8"></path></g><g transform="translate(518 54)"><path d="M27.6 -22.3C34 -14 36.1 -2.7 33.7 7.6C31.3 17.9 24.4 27 15.3 31.2C6.2 35.4 -5.1 34.7 -14.7 30.2C-24.3 25.7 -32.2 17.4 -34.5 7.8C-36.7 -1.9 -33.4 -12.9 -26.7 -21.3C-20 -29.6 -10 -35.3 0.3 -35.5C10.6 -35.8 21.2 -30.6 27.6 -22.3Z" fill="none" stroke="#8ED081" stroke-width="8"></path></g><g transform="translate(83 158)"><path d="M14.9 -11.8C18.5 -7.4 20.1 -1.2 18.9 4.4C17.6 10 13.6 15 8.3 17.7C3 20.5 -3.7 20.9 -9.1 18.5C-14.6 16 -18.9 10.7 -20.2 4.6C-21.6 -1.4 -20.1 -8.1 -16.2 -12.5C-12.3 -17 -6.2 -19.2 -0.3 -19C5.7 -18.8 11.3 -16.2 14.9 -11.8Z" fill="none" stroke="#8ED081" stroke-width="8"></path></g><g transform="translate(23 878)"><path d="M15.5 -12.6C19.1 -7.8 20.5 -1.4 19.3 4.7C18.2 10.7 14.4 16.5 9.2 19C3.9 21.5 -2.9 20.9 -8.7 18.1C-14.4 15.3 -19.2 10.4 -20.8 4.4C-22.4 -1.5 -20.9 -8.5 -16.9 -13.4C-12.9 -18.4 -6.5 -21.3 -0.3 -21.1C5.9 -20.9 11.8 -17.5 15.5 -12.6Z" fill="none" stroke="#8ED081" stroke-width="8"></path></g><g transform="translate(121 496)"><path d="M29.6 -23.9C37.1 -14.2 41 -2 38.6 9C36.2 20 27.6 29.7 17 34.5C6.4 39.3 -6.2 39.1 -16.3 34.1C-26.5 29.1 -34.2 19.4 -37 8.1C-39.8 -3.1 -37.7 -15.8 -30.8 -25.3C-23.8 -34.8 -11.9 -41.3 -0.4 -40.9C11.1 -40.6 22.1 -33.5 29.6 -23.9Z" fill="none" stroke="#8ED081" stroke-width="8"></path></g><g transform="translate(1 354)"><path d="M21.7 -17.6C26.8 -11 28.6 -2 26.8 6.3C25 14.6 19.7 22.2 12.4 25.7C5.1 29.1 -4.1 28.4 -12.1 24.7C-20 21 -26.7 14.3 -28.9 6.1C-31.2 -2 -29 -11.7 -23.4 -18.4C-17.8 -25.1 -8.9 -28.9 -0.3 -28.7C8.3 -28.4 16.7 -24.2 21.7 -17.6Z" fill="none" stroke="#8ED081" stroke-width="8"></path></g><g transform="translate(877 93)"><path d="M33.8 -26.5C41.9 -16.7 45.4 -2.8 42.4 9.5C39.5 21.7 30 32.2 18.4 37.6C6.8 43 -7.1 43.2 -18.2 37.8C-29.3 32.5 -37.7 21.5 -41.2 8.7C-44.6 -4.1 -43.1 -18.6 -35.4 -28.3C-27.8 -37.9 -13.9 -42.7 -0.5 -42.2C12.8 -41.8 25.6 -36.2 33.8 -26.5Z" fill="none" stroke="#8ED081" stroke-width="8"></path></g><g transform="translate(844 417)"><path d="M35.2 -28C43.7 -17.4 47.3 -2.9 44 9.5C40.8 21.9 30.6 32.1 18.3 38C6 44 -8.4 45.6 -20.2 40.5C-32.1 35.3 -41.5 23.5 -44 10.5C-46.6 -2.4 -42.4 -16.4 -33.9 -27C-25.5 -37.5 -12.7 -44.5 0.3 -44.8C13.4 -45 26.7 -38.5 35.2 -28Z" fill="none" stroke="#8ED081" stroke-width="8"></path></g><g transform="translate(361 170)"><path d="M23.6 -18.3C29.1 -11.9 31.1 -2.2 29 6.5C26.9 15.2 20.8 22.8 13 26.3C5.2 29.9 -4.4 29.3 -12.3 25.5C-20.3 21.7 -26.7 14.6 -28.9 6.3C-31 -2 -28.8 -11.6 -23.3 -18.1C-17.8 -24.5 -8.9 -27.8 0.1 -27.9C9 -27.9 18.1 -24.8 23.6 -18.3Z" stroke="#8ED081" fill="none" stroke-width="8"></path></g></g></svg>