<svg id="visual" viewBox="0 0 900 900" width="900" height="900" xmlns="http://www.w3.org/2000/svg" xmlns:xlink="http://www.w3.org/1999/xlink" version="1.1"><rect x="0" y="0" width="900" height="900" fill="#f0f0f0"></rect><path d="M639 900L643.8 878.5C648.7 857 658.3 814 644.2 771.2C630 728.3 592 685.7 591 642.8C590 600 626 557 644.8 514.2C663.7 471.3 665.3 428.7 660.2 385.8C655 343 643 300 638.5 257.2C634 214.3 637 171.7 622.7 128.8C608.3 86 576.7 43 560.8 21.5L545 0L900 0L900 21.5C900 43 900 86 900 128.8C900 171.7 900 214.3 900 257.2C900 300 900 343 900 385.8C900 428.7 900 471.3 900 514.2C900 557 900 600 900 642.8C900 685.7 900 728.3 900 771.2C900 814 900 857 900 878.5L900 900Z" fill="#fa7268"></path><path d="M638 900L643.3 878.5C648.7 857 659.3 814 671 771.2C682.7 728.3 695.3 685.7 688.8 642.8C682.3 600 656.7 557 655 514.2C653.3 471.3 675.7 428.7 683.3 385.8C691 343 684 300 688 257.2C692 214.3 707 171.7 703.5 128.8C700 86 678 43 667 21.5L656 0L900 0L900 21.5C900 43 900 86 900 128.8C900 171.7 900 214.3 900 257.2C900 300 900 343 900 385.8C900 428.7 900 471.3 900 514.2C900 557 900 600 900 642.8C900 685.7 900 728.3 900 771.2C900 814 900 857 900 878.5L900 900Z" fill="#fc695b"></path><path d="M693 900L697.5 878.5C702 857 711 814 714.2 771.2C717.3 728.3 714.7 685.7 707.5 642.8C700.3 600 688.7 557 683.3 514.2C678 471.3 679 428.7 678.2 385.8C677.3 343 674.7 300 679.3 257.2C684 214.3 696 171.7 700.5 128.8C705 86 702 43 700.5 21.5L699 0L900 0L900 21.5C900 43 900 86 900 128.8C900 171.7 900 214.3 900 257.2C900 300 900 343 900 385.8C900 428.7 900 471.3 900 514.2C900 557 900 600 900 642.8C900 685.7 900 728.3 900 771.2C900 814 900 857 900 878.5L900 900Z" fill="#fe614d"></path><path d="M768 900L765.2 878.5C762.3 857 756.7 814 756.2 771.2C755.7 728.3 760.3 685.7 764.2 642.8C768 600 771 557 776.3 514.2C781.7 471.3 789.3 428.7 790.5 385.8C791.7 343 786.3 300 779.3 257.2C772.3 214.3 763.7 171.7 754.3 128.8C745 86 735 43 730 21.5L725 0L900 0L900 21.5C900 43 900 86 900 128.8C900 171.7 900 214.3 900 257.2C900 300 900 343 900 385.8C900 428.7 900 471.3 900 514.2C900 557 900 600 900 642.8C900 685.7 900 728.3 900 771.2C900 814 900 857 900 878.5L900 900Z" fill="#ff593e"></path><path d="M820 900L821.2 878.5C822.3 857 824.7 814 821.7 771.2C818.7 728.3 810.3 685.7 815 642.8C819.7 600 837.3 557 846.3 514.2C855.3 471.3 855.7 428.7 847 385.8C838.3 343 820.7 300 810.5 257.2C800.3 214.3 797.7 171.7 800.8 128.8C804 86 813 43 817.5 21.5L822 0L900 0L900 21.5C900 43 900 86 900 128.8C900 171.7 900 214.3 900 257.2C900 300 900 343 900 385.8C900 428.7 900 471.3 900 514.2C900 557 900 600 900 642.8C900 685.7 900 728.3 900 771.2C900 814 900 857 900 878.5L900 900Z" fill="#ff512e"></path></svg>