<svg id="visual" viewBox="0 0 900 900" width="900" height="900" xmlns="http://www.w3.org/2000/svg" xmlns:xlink="http://www.w3.org/1999/xlink" version="1.1"><rect width="900" height="900" fill="#8ED081"></rect><g><g transform="translate(578 159)"><path d="M33.9 -27.4C41.9 -17 45 -3 42.2 9.8C39.4 22.6 30.7 34.2 18.7 40.7C6.7 47.3 -8.7 48.7 -20.9 43C-33 37.3 -41.8 24.4 -44.9 10.4C-47.9 -3.6 -45.3 -18.8 -36.8 -29.3C-28.4 -39.9 -14.2 -45.8 -0.6 -45.3C12.9 -44.8 25.9 -37.9 33.9 -27.4Z" fill="none" stroke="#f0f0f0" stroke-width="8"></path></g><g transform="translate(368 94)"><path d="M32.6 -25.8C40.3 -16.3 43.2 -2.9 40.5 9.2C37.7 21.4 29.2 32.3 18.2 37.4C7.2 42.5 -6.4 42 -17.9 36.6C-29.5 31.3 -39.1 21.2 -41.6 9.6C-44.1 -1.9 -39.6 -14.9 -31.5 -24.5C-23.4 -34.1 -11.7 -40.2 0.4 -40.5C12.5 -40.9 24.9 -35.3 32.6 -25.8Z" fill="none" stroke="#f0f0f0" stroke-width="8"></path></g><g transform="translate(506 823)"><path d="M30 -24.4C36.8 -15.4 38.8 -3 36.2 8.3C33.7 19.6 26.5 30 16.4 35.3C6.3 40.7 -6.9 41.1 -17 36C-27.1 30.8 -34.3 20.1 -37 8.4C-39.7 -3.3 -37.9 -16.1 -31 -25.1C-24.1 -34.2 -12 -39.5 -0.2 -39.3C11.6 -39.1 23.1 -33.4 30 -24.4Z" fill="none" stroke="#f0f0f0" stroke-width="8"></path></g><g transform="translate(91 10)"><path d="M27.6 -21.9C34.3 -13.6 37.3 -2.2 35 7.9C32.6 17.9 24.8 26.5 15.1 31.1C5.5 35.6 -6 36 -15.6 31.6C-25.2 27.3 -33 18.3 -35.5 7.9C-38.1 -2.5 -35.4 -14.3 -28.6 -22.7C-21.9 -31.1 -10.9 -36.1 -0.3 -35.9C10.4 -35.7 20.8 -30.3 27.6 -21.9Z" fill="none" stroke="#f0f0f0" stroke-width="8"></path></g><g transform="translate(691 245)"><path d="M28.2 -22.4C35.1 -13.7 38.5 -2.1 36.1 8.2C33.7 18.5 25.6 27.4 15.6 32.1C5.5 36.9 -6.4 37.5 -16.6 33.1C-26.8 28.7 -35.3 19.3 -38 8.3C-40.8 -2.6 -37.9 -15.3 -30.6 -24C-23.3 -32.8 -11.7 -37.7 -0.5 -37.3C10.6 -36.8 21.2 -31.1 28.2 -22.4Z" fill="none" stroke="#f0f0f0" stroke-width="8"></path></g><g transform="translate(856 90)"><path d="M21.1 -16.9C26.1 -10.6 28 -1.9 26.2 5.9C24.4 13.7 18.8 20.5 11.5 24.1C4.2 27.7 -4.8 28.1 -12.1 24.7C-19.5 21.4 -25.2 14.2 -26.8 6.4C-28.4 -1.5 -25.9 -10.1 -20.7 -16.5C-15.6 -22.9 -7.8 -27.1 0.1 -27.3C8.1 -27.4 16.1 -23.3 21.1 -16.9Z" fill="none" stroke="#f0f0f0" stroke-width="8"></path></g><g transform="translate(681 589)"><path d="M30.4 -23.9C38.2 -14.5 42.5 -1.9 40.2 9.5C37.8 21 28.9 31.2 18 36C7 40.7 -5.9 39.9 -16.7 34.7C-27.6 29.5 -36.3 19.9 -38.7 8.9C-41.1 -2.1 -37.3 -14.4 -29.8 -23.7C-22.3 -33 -11.2 -39.3 0.1 -39.3C11.3 -39.4 22.7 -33.2 30.4 -23.9Z" fill="none" stroke="#f0f0f0" stroke-width="8"></path></g><g transform="translate(874 317)"><path d="M23.5 -18.1C29.2 -11.6 31.6 -1.9 29.5 6.4C27.3 14.7 20.6 21.7 12.4 25.5C4.3 29.3 -5.2 29.9 -12.5 26.2C-19.8 22.6 -24.8 14.7 -26.5 6.4C-28.1 -1.9 -26.3 -10.7 -21.3 -17C-16.3 -23.3 -8.1 -27.2 0.4 -27.5C8.9 -27.8 17.8 -24.6 23.5 -18.1Z" fill="none" stroke="#f0f0f0" stroke-width="8"></path></g><g transform="translate(756 882)"><path d="M21.7 -17.3C26.9 -10.9 28.8 -2 26.8 6C24.9 13.9 19.1 20.8 11.9 24.1C4.6 27.4 -4.1 27.1 -11.4 23.6C-18.7 20.1 -24.6 13.6 -26.6 5.8C-28.6 -2 -26.7 -10.9 -21.6 -17.2C-16.5 -23.6 -8.3 -27.3 0 -27.4C8.3 -27.4 16.6 -23.6 21.7 -17.3Z" fill="none" stroke="#f0f0f0" stroke-width="8"></path></g><g transform="translate(118 561)"><path d="M27.2 -22.2C33.6 -13.8 35.8 -2.5 33.7 8.2C31.7 18.9 25.3 29.1 16.1 33.6C6.9 38.1 -5.2 36.9 -14.8 31.9C-24.5 26.8 -31.8 17.8 -34.3 7.6C-36.8 -2.7 -34.6 -14.3 -28.1 -22.7C-21.6 -31.2 -10.8 -36.6 -0.2 -36.5C10.5 -36.4 20.9 -30.7 27.2 -22.2Z" fill="none" stroke="#f0f0f0" stroke-width="8"></path></g><g transform="translate(240 708)"><path d="M23.3 -19C28.7 -11.8 30.5 -2.2 28.6 6.8C26.7 15.7 21.2 24.1 13.3 28C5.4 32 -4.7 31.5 -12.9 27.3C-21.1 23.2 -27.3 15.4 -29.2 6.8C-31 -1.8 -28.5 -11.2 -22.9 -18.4C-17.3 -25.6 -8.6 -30.5 0.2 -30.7C8.9 -30.8 17.9 -26.1 23.3 -19Z" fill="none" stroke="#f0f0f0" stroke-width="8"></path></g><g transform="translate(387 515)"><path d="M32.7 -26.4C40.9 -15.9 44.8 -2.4 42 9.4C39.1 21.1 29.5 31.2 17.7 37C5.8 42.8 -8.1 44.3 -19.1 39.2C-30 34.1 -37.9 22.3 -40.7 9.5C-43.5 -3.4 -41.2 -17.2 -33.5 -27.5C-25.9 -37.9 -13 -44.8 -0.3 -44.6C12.3 -44.3 24.6 -36.9 32.7 -26.4Z" fill="none" stroke="#f0f0f0" stroke-width="8"></path></g><g transform="translate(178 302)"><path d="M30.1 -23.8C37.2 -15.2 39.7 -2.8 37 8.1C34.3 19.1 26.3 28.5 16 33.5C5.8 38.6 -6.8 39.3 -17 34.6C-27.2 29.9 -35 19.9 -37.7 8.5C-40.3 -2.8 -37.7 -15.4 -30.5 -24C-23.4 -32.6 -11.7 -37.2 -0.1 -37.1C11.6 -37 23.1 -32.3 30.1 -23.8Z" fill="none" stroke="#f0f0f0" stroke-width="8"></path></g></g></svg>