<svg id="visual" viewBox="0 0 900 900" width="900" height="900" xmlns="http://www.w3.org/2000/svg" xmlns:xlink="http://www.w3.org/1999/xlink" version="1.1"><rect width="900" height="900" fill="#f0f0f0"></rect><g><g transform="translate(539 223)"><path d="M36 -28.9C44 -18.6 46.1 -3.8 42.7 9.3C39.3 22.4 30.6 33.9 19 39.5C7.4 45.1 -7.1 44.9 -19 39.2C-30.9 33.6 -40.3 22.4 -43.3 9.7C-46.4 -3.1 -43.1 -17.4 -34.9 -27.8C-26.6 -38.1 -13.3 -44.3 0.3 -44.6C14 -44.9 28 -39.2 36 -28.9Z" fill="none" stroke="#8ED081" stroke-width="8"></path></g><g transform="translate(535 362)"><path d="M25.3 -20.6C31.4 -12.6 33.9 -2.1 32 7.8C30.2 17.7 23.9 27.1 15 31.4C6.2 35.8 -5.2 35.1 -14.3 30.5C-23.5 25.8 -30.3 17.2 -32.9 7.2C-35.5 -2.8 -33.7 -14.1 -27.5 -22.2C-21.3 -30.2 -10.6 -35 -0.5 -34.6C9.6 -34.2 19.3 -28.6 25.3 -20.6Z" fill="none" stroke="#8ED081" stroke-width="8"></path></g><g transform="translate(343 613)"><path d="M15.9 -13C19.7 -8 21.2 -1.4 19.8 4.5C18.5 10.4 14.3 15.7 8.9 18.2C3.5 20.6 -3 20.3 -8.7 17.7C-14.4 15.1 -19.2 10.3 -20.7 4.5C-22.3 -1.3 -20.5 -8.2 -16.5 -13.2C-12.5 -18.3 -6.3 -21.6 -0.1 -21.5C6.1 -21.5 12.2 -18 15.9 -13Z" fill="none" stroke="#8ED081" stroke-width="8"></path></g><g transform="translate(239 74)"><path d="M19.6 -16.1C24.1 -10 25.7 -1.9 24.1 5.7C22.6 13.3 17.9 20.5 11.2 24C4.5 27.4 -4.3 27.3 -11 23.7C-17.8 20.1 -22.5 13.2 -24 5.7C-25.5 -1.7 -23.8 -9.7 -19.3 -15.9C-14.7 -22.1 -7.4 -26.5 0.1 -26.6C7.5 -26.6 15.1 -22.3 19.6 -16.1Z" fill="none" stroke="#8ED081" stroke-width="8"></path></g><g transform="translate(547 538)"><path d="M17.2 -13.4C21.3 -8.5 23 -1.4 21.4 4.6C19.8 10.7 15 15.8 9.1 18.5C3.2 21.1 -3.6 21.4 -9.3 18.8C-15.1 16.3 -19.8 10.9 -21.2 4.8C-22.6 -1.3 -20.7 -8.1 -16.6 -13C-12.5 -17.9 -6.3 -20.8 0.1 -20.9C6.5 -21 13 -18.3 17.2 -13.4Z" fill="none" stroke="#8ED081" stroke-width="8"></path></g><g transform="translate(746 802)"><path d="M30.4 -24C37.6 -15.2 40.4 -2.7 37.8 8.6C35.2 19.9 27.2 29.9 16.8 34.9C6.4 39.9 -6.4 39.9 -17.2 35C-28 30 -36.8 20.2 -39 9.2C-41.3 -1.7 -37 -13.9 -29.4 -22.7C-21.8 -31.6 -10.9 -37.2 0.4 -37.4C11.6 -37.7 23.2 -32.8 30.4 -24Z" fill="none" stroke="#8ED081" stroke-width="8"></path></g><g transform="translate(539 792)"><path d="M28.1 -22.4C34.6 -14.2 37 -2.6 34.5 7.8C32 18.2 24.8 27.4 15.3 32.1C5.8 36.8 -6.1 37 -16 32.5C-25.9 28 -33.9 18.8 -36.1 8.4C-38.4 -2 -35 -13.6 -28.1 -21.9C-21.1 -30.2 -10.5 -35.1 0.1 -35.2C10.8 -35.3 21.6 -30.5 28.1 -22.4Z" fill="none" stroke="#8ED081" stroke-width="8"></path></g><g transform="translate(543 52)"><path d="M28 -21.6C34.7 -13.9 37.6 -2.3 35 7.6C32.4 17.5 24.4 25.7 14.9 29.9C5.3 34.1 -5.6 34.3 -14.6 30.1C-23.5 25.8 -30.4 17.2 -32.4 7.5C-34.5 -2.1 -31.8 -12.7 -25.6 -20.2C-19.4 -27.8 -9.7 -32.4 0.5 -32.8C10.6 -33.1 21.3 -29.3 28 -21.6Z" fill="none" stroke="#8ED081" stroke-width="8"></path></g><g transform="translate(855 173)"><path d="M35.7 -28.1C44.2 -17.8 47.7 -3.1 44.9 10.6C42 24.3 32.9 36.9 20.6 42.8C8.3 48.7 -7.2 48 -19.4 41.6C-31.5 35.3 -40.2 23.2 -42.8 10.2C-45.5 -2.9 -42.2 -16.9 -34 -27.2C-25.9 -37.4 -12.9 -43.8 0.3 -44.1C13.6 -44.4 27.2 -38.4 35.7 -28.1Z" fill="none" stroke="#8ED081" stroke-width="8"></path></g><g transform="translate(887 17)"><path d="M25.3 -20.4C31.4 -12.7 33.8 -2.2 31.7 7.3C29.6 16.8 23 25.4 14.3 29.5C5.7 33.5 -5 33 -13.4 28.7C-21.8 24.3 -28 16 -30.3 6.7C-32.6 -2.6 -30.9 -13 -25.2 -20.7C-19.5 -28.4 -9.8 -33.4 -0.1 -33.3C9.7 -33.3 19.3 -28.2 25.3 -20.4Z" fill="none" stroke="#8ED081" stroke-width="8"></path></g><g transform="translate(231 519)"><path d="M19.3 -15.3C24 -9.6 26 -1.6 24.6 6C23.1 13.5 18.3 20.7 11.4 24.2C4.5 27.8 -4.4 27.7 -11.5 24.2C-18.6 20.7 -23.8 13.7 -25.3 6C-26.9 -1.6 -24.7 -9.8 -19.9 -15.6C-15.1 -21.4 -7.5 -24.9 -0.1 -24.8C7.3 -24.7 14.7 -21.1 19.3 -15.3Z" fill="none" stroke="#8ED081" stroke-width="8"></path></g><g transform="translate(334 209)"><path d="M18.5 -14.7C23.3 -8.9 25.7 -1.2 24.4 5.8C23 12.9 17.7 19.3 10.9 22.6C4.1 25.9 -4.3 26 -10.5 22.7C-16.7 19.3 -20.8 12.5 -22.2 5.3C-23.7 -1.9 -22.5 -9.4 -18.3 -15.1C-14.2 -20.8 -7.1 -24.7 -0.1 -24.7C6.9 -24.6 13.8 -20.6 18.5 -14.7Z" fill="none" stroke="#8ED081" stroke-width="8"></path></g></g></svg>