<svg id="Layer_1" data-name="Layer 1" xmlns="http://www.w3.org/2000/svg" viewBox="0 0 256 256"><defs><style>.cls-1{fill:none;stroke:#000;stroke-miterlimit:10;stroke-width:16px;}</style></defs><path class="cls-1" d="M154.4,227h-53a35.29,35.29,0,0,1-35.3-35.3V92.4a35.29,35.29,0,0,1,35.3-35.3h53a35.29,35.29,0,0,1,35.3,35.3v99.3A35.29,35.29,0,0,1,154.4,227Z"/><path class="cls-1" d="M71.4,86.7S36,69.3,54.5,26.7c0,0,8.4,24.7,44.4,30.4"/><path class="cls-1" d="M184.5,86.7s33.7-20.3,13.5-60a46.15,46.15,0,0,1-11.8,18.2,46.89,46.89,0,0,1-28.6,12.2"/><path class="cls-1" d="M66.1,174.5s51.2-22.2,123.7,0"/></svg>