<svg id="Layer_1" data-name="Layer 1" xmlns="http://www.w3.org/2000/svg" viewBox="0 0 256 256"><path d="M79.22,42.47h0m-1.2.9,35.24,73.48a16,16,0,0,0,14.27,9.08h.15a16,16,0,0,0,14.3-8.82l37-73.6a.78.78,0,0,1,.27-.06,3.81,3.81,0,0,1,1.43.4c18.45,17,25.55,44.06,25.61,44.29.1.43.23.85.37,1.27,11.76,34.62,2.33,64.73,2,65.9a14.9,14.9,0,0,0-.7,3c-1.93,13.77-11.78,25.49-19.7,32.89a108.34,108.34,0,0,1-18,13.56,117.3,117.3,0,0,1-42.1,8c-23,0-38.38-7.26-39.34-7.73A14,14,0,0,0,87,204.2C65.84,196.39,55.22,175,54.71,174a10.79,10.79,0,0,0-1.27-2.25c-.46-.74-4.24-7-7-18-3.92-15.59-4-32.81-.3-51.17S56.56,68.6,66.05,56A68.87,68.87,0,0,1,78,43.37m.43-16.08a20,20,0,0,0-7.93,1.76S41,47.72,30.46,99.44s9.73,81.27,9.73,81.27,12.83,28,41.22,38.5c0,0,18.32,9.5,46.66,9.5a133.39,133.39,0,0,0,49-9.5s41.61-22.56,46.66-58.72c0,0,12.06-35-1.94-76.22,0,0-8.17-32.67-31.5-53.28a20.21,20.21,0,0,0-11.06-3.53c-4,0-8.56,1.38-13,5.87l-38.5,76.61L91.13,33.72a16,16,0,0,0-12.68-6.43Z"/></svg>